{"accessors":[{"bufferView":0,"byteOffset":0,"componentType":5126,"count":113,"max":[0.10300000000000001,0.10299004862475725,-0.030999999999999996],"min":[-0.10296019642193907,-0.10299004862475723,-0.031000000000000003],"type":"VEC3"},{"bufferView":0,"byteOffset":1356,"componentType":5126,"count":3867,"max":[0.1379991175256938,0.13799401079108348,6.220000000000004e-18],"min":[-0.137996469504551,-0.137996469504551,-0.031000000000000003],"type":"VEC3"},{"bufferView":0,"byteOffset":47760,"componentType":5126,"count":226,"max":[0.1358145675152032,0.13580144575088499,6.220000000000004e-18],"min":[-0.1357620829934566,-0.13580144575088499,0.0],"type":"VEC3"},{"bufferView":0,"byteOffset":50472,"componentType":5126,"count":228,"max":[0.1338892417275068,0.13387630597910488,0.0],"min":[-0.1338375012334814,-0.13387630597910488,-0.014116463296490382],"type":"VEC3"},{"bufferView":0,"byteOffset":53208,"componentType":5126,"count":1120,"max":[0.1338892417275068,0.13387630597910488,-0.014116463296490378],"min":[-0.1338375012334814,-0.13387630597910488,-0.029250000000000005],"type":"VEC3"},{"bufferView":0,"byteOffset":66648,"componentType":5126,"count":113,"max":[0.101,0.1009902418553445,-0.029249999999999998],"min":[-0.10096096930694998,-0.10099024185534448,-0.029250000000000005],"type":"VEC3"},{"bufferView":1,"byteOffset":0,"componentType":5126,"count":113,"type":"VEC3"},{"bufferView":1,"byteOffset":1356,"componentType":5126,"count":3867,"type":"VEC3"},{"bufferView":1,"byteOffset":47760,"componentType":5126,"count":226,"type":"VEC3"},{"bufferView":1,"byteOffset":50472,"componentType":5126,"count":228,"type":"VEC3"},{"bufferView":1,"byteOffset":53208,"componentType":5126,"count":1120,"type":"VEC3"},{"bufferView":1,"byteOffset":66648,"componentType":5126,"count":113,"type":"VEC3"},{"bufferView":2,"byteOffset":0,"componentType":5123,"count":333,"type":"SCALAR"},{"bufferView":2,"byteOffset":668,"componentType":5123,"count":22206,"type":"SCALAR"},{"bufferView":2,"byteOffset":45080,"componentType":5123,"count":678,"type":"SCALAR"},{"bufferView":2,"byteOffset":46436,"componentType":5123,"count":678,"type":"SCALAR"},{"bufferView":2,"byteOffset":47792,"componentType":5123,"count":5874,"type":"SCALAR"},{"bufferView":2,"byteOffset":59540,"componentType":5123,"count":333,"type":"SCALAR"}],"asset":{"generator":"Open CASCADE Technology 7.8 [dev.opencascade.org]","version":"2.0"},"bufferViews":[{"buffer":0,"byteLength":68004,"byteOffset":0,"byteStride":12,"target":34962},{"buffer":0,"byteLength":68004,"byteOffset":68004,"byteStride":12,"target":34962},{"buffer":0,"byteLength":60208,"byteOffset":136008,"target":34963}],"buffers":[{"byteLength":196216,"uri":"flatball-usau-frisbee.bin"}],"materials":[{"name":"mat_0","pbrMetallicRoughness":{"baseColorFactor":[0.6038273572921753,0.6038273572921753,0.791297972202301,1.0]},"doubleSided":true}],"meshes":[{"name":"frisbee","primitives":[{"attributes":{"NORMAL":6,"POSITION":0},"indices":12,"material":0,"mode":4},{"attributes":{"NORMAL":7,"POSITION":1},"indices":13,"material":0,"mode":4},{"attributes":{"NORMAL":8,"POSITION":2},"indices":14,"material":0,"mode":4},{"attributes":{"NORMAL":9,"POSITION":3},"indices":15,"material":0,"mode":4},{"attributes":{"NORMAL":10,"POSITION":4},"indices":16,"material":0,"mode":4},{"attributes":{"NORMAL":11,"POSITION":5},"indices":17,"material":0,"mode":4}]}],"nodes":[{"mesh":0,"name":"frisbee"}],"scene":0,"scenes":[{"nodes":[0]}]}