{"accessors":[{"bufferView":0,"byteOffset":0,"componentType":5126,"count":126,"max":[0.10300000000000001,0.1029679857460841,-0.031],"min":[-0.10300000000000001,-0.10296798574608407,-0.031],"type":"VEC3"},{"bufferView":0,"byteOffset":1512,"componentType":5126,"count":3739,"max":[0.13799660912692996,0.13795287410065876,6.22e-18],"min":[-0.13799576566843963,-0.13795287410065873,-0.031],"type":"VEC3"},{"bufferView":0,"byteOffset":46380,"componentType":5126,"count":252,"max":[0.1358145675152032,0.13577235390306816,6.22e-18],"min":[-0.1358145675152032,-0.13577235390306813,0.0],"type":"VEC3"},{"bufferView":0,"byteOffset":49404,"componentType":5126,"count":337,"max":[0.1338892417275068,0.13384762654128085,0.0],"min":[-0.1338892417275068,-0.13384762654128082,-0.01411646329649038],"type":"VEC3"},{"bufferView":0,"byteOffset":53448,"componentType":5126,"count":2062,"max":[0.1338892417275068,0.13384762654128085,-0.01411646329649038],"min":[-0.1338892417275068,-0.13384762654128082,-0.02925],"type":"VEC3"},{"bufferView":0,"byteOffset":78192,"componentType":5126,"count":126,"max":[0.101,0.10096860738208246,-0.02925],"min":[-0.101,-0.10096860738208244,-0.02925],"type":"VEC3"},{"bufferView":1,"byteOffset":0,"componentType":5126,"count":126,"type":"VEC3"},{"bufferView":1,"byteOffset":1512,"componentType":5126,"count":3739,"type":"VEC3"},{"bufferView":1,"byteOffset":46380,"componentType":5126,"count":252,"type":"VEC3"},{"bufferView":1,"byteOffset":49404,"componentType":5126,"count":337,"type":"VEC3"},{"bufferView":1,"byteOffset":53448,"componentType":5126,"count":2062,"type":"VEC3"},{"bufferView":1,"byteOffset":78192,"componentType":5126,"count":126,"type":"VEC3"},{"bufferView":2,"byteOffset":0,"componentType":5123,"count":372,"type":"SCALAR"},{"bufferView":2,"byteOffset":744,"componentType":5123,"count":21336,"type":"SCALAR"},{"bufferView":2,"byteOffset":43416,"componentType":5123,"count":756,"type":"SCALAR"},{"bufferView":2,"byteOffset":44928,"componentType":5123,"count":1248,"type":"SCALAR"},{"bufferView":2,"byteOffset":47424,"componentType":5123,"count":11430,"type":"SCALAR"},{"bufferView":2,"byteOffset":70284,"componentType":5123,"count":372,"type":"SCALAR"}],"asset":{"generator":"Open CASCADE Technology 7.8 [dev.opencascade.org]","version":"2.0"},"bufferViews":[{"buffer":0,"byteLength":79704,"byteOffset":0,"byteStride":12,"target":34962},{"buffer":0,"byteLength":79704,"byteOffset":79704,"byteStride":12,"target":34962},{"buffer":0,"byteLength":71028,"byteOffset":159408,"target":34963}],"buffers":[{"byteLength":230436,"uri":"flatball-usau-frisbee.bin"}],"materials":[{"name":"mat_0","pbrMetallicRoughness":{"baseColorFactor":[0.6038273572921753,0.6038273572921753,0.791297972202301,1.0]},"doubleSided":true}],"meshes":[{"name":"frisbee","primitives":[{"attributes":{"NORMAL":6,"POSITION":0},"indices":12,"material":0,"mode":4},{"attributes":{"NORMAL":7,"POSITION":1},"indices":13,"material":0,"mode":4},{"attributes":{"NORMAL":8,"POSITION":2},"indices":14,"material":0,"mode":4},{"attributes":{"NORMAL":9,"POSITION":3},"indices":15,"material":0,"mode":4},{"attributes":{"NORMAL":10,"POSITION":4},"indices":16,"material":0,"mode":4},{"attributes":{"NORMAL":11,"POSITION":5},"indices":17,"material":0,"mode":4}]}],"nodes":[{"mesh":0,"name":"frisbee"}],"scene":0,"scenes":[{"nodes":[0]}]}